<svg height="64px" width="64px" version="1.1" id="Layer_1" xmlns="http://www.w3.org/2000/svg" xmlns:xlink="http://www.w3.org/1999/xlink" viewBox="0 0 512 512" xml:space="preserve" fill="#000000"><g id="SVGRepo_bgCarrier" stroke-width="0"></g><g id="SVGRepo_tracerCarrier" stroke-linecap="round" stroke-linejoin="round"></g><g id="SVGRepo_iconCarrier"> <path style="fill:#ff00ff;" d="M467.478,489.739H66.782c-24.588,0-44.522-19.934-44.522-44.522V44.522 c0-12.295,9.966-22.261,22.261-22.261h422.956c12.295,0,22.261,9.966,22.261,22.261v422.957 C489.739,479.773,479.773,489.739,467.478,489.739z"></path> <path style="fill:#ffffff;" d="M509.555,487.294l-22.261,22.261c-1.631,1.629-3.768,2.445-5.904,2.445 c-2.136,0-4.273-0.815-5.904-2.445c-3.26-3.26-3.26-8.546,0-11.805l8.011-8.011H52.869c-16.877,0-30.609-13.731-30.609-30.609 V28.501l-8.009,8.011c-3.261,3.26-8.546,3.26-11.806,0s-3.26-8.546,0-11.805L24.706,2.445c3.261-3.26,8.546-3.26,11.806,0 l22.261,22.261c3.26,3.26,3.26,8.546,0,11.805c-1.631,1.629-3.768,2.445-5.904,2.445s-4.273-0.815-5.904-2.445l-8.009-8.011v430.63 c0,7.672,6.241,13.913,13.913,13.913h430.629l-8.011-8.011c-3.26-3.26-3.26-8.546,0-11.805c3.261-3.26,8.546-3.26,11.806,0 l22.261,22.261C512.815,478.748,512.815,484.035,509.555,487.294z"></path> <path style="fill:#caf0fe;" d="M289.391,256c12.295,0,22.261,9.966,22.261,22.261c0,12.295-9.966,22.261-22.261,22.261 s-22.261-9.966-22.261-22.261C267.13,265.966,277.096,256,289.391,256z M356.174,66.783c0,12.295,9.966,22.261,22.261,22.261 c12.295,0,22.261-9.966,22.261-22.261s-9.966-22.261-22.261-22.261C366.14,44.522,356.174,54.488,356.174,66.783z"></path> <path style="fill:#94e3fe;" d="M400.695,122.435c12.295,0,22.261,9.966,22.261,22.261c0,12.295-9.966,22.261-22.261,22.261 s-22.261-9.966-22.261-22.261C378.435,132.401,388.401,122.435,400.695,122.435z M467.478,22.261 c0,12.295,9.966,22.261,22.261,22.261c12.295,0,22.261-9.966,22.261-22.261S502.034,0,489.739,0 C477.444,0,467.478,9.966,467.478,22.261z"></path> <path style="fill:#f1c9fe;" d="M256,144.696c12.295,0,22.261,9.966,22.261,22.261s-9.966,22.261-22.261,22.261 s-22.261-9.966-22.261-22.261S243.705,144.696,256,144.696z M155.826,367.304c0,12.295,9.966,22.261,22.261,22.261 c12.295,0,22.261-9.966,22.261-22.261c0-12.295-9.966-22.261-22.261-22.261C165.792,345.043,155.826,355.01,155.826,367.304z"></path> <path style="fill:#d4e3fe;" d="M178.087,267.13c12.295,0,22.261,9.966,22.261,22.261c0,12.295-9.966,22.261-22.261,22.261 c-12.295,0-22.261-9.966-22.261-22.261C155.826,277.097,165.792,267.13,178.087,267.13z M66.782,422.957 c0,12.295,9.966,22.261,22.261,22.261s22.261-9.966,22.261-22.261c0-12.295-9.966-22.261-22.261-22.261 S66.782,410.662,66.782,422.957z"></path> </g></svg>
